{"title":"Beneath the Darkness 2011 DVDrip English Klam","uid":6990628,"size":1428817650,"categoryP":"video","categoryS":"movies","magnet":"?xt=urn:btih:8a9c465ca882ba7ad937f17a3a2d215c2e9fd31e&amp;dn=Beneath+the+Darkness+2011+DVDrip+English+Klam&amp;tr=udp%3A%2F%2Ftracker.openbittorrent.com%3A80&amp;tr=udp%3A%2F%2Fopen.demonii.com%3A1337&amp;tr=udp%3A%2F%2Ftracker.coppersurfer.tk%3A6969&amp;tr=udp%3A%2F%2Fexodus.desync.com%3A6969","seeders":2,"leechers":0,"uploader":"Klambake","files":-1,"time":1327689532,"description":"With: Dennis Quaid, Tony Oller and Aimee Teegarden\n\nEen groep vrienden is getuige geweest van de moord op een van hun beste vrienden. Al snel zien ze de lokale held, en tevens de buurman van een van de 16-jarige jongens, als de psychopatische moordenaar. Ze proberen de geheimen rond de verdachte buurman en zijn spookhuis bloot te leggen en zo te voorkomen om een van zijn volgende slachtoffers te worden.\n\nAfter watching their best friend get murdered, a group of teens struggle to expose a local hero as the vicious killer and keep from becoming his next victims. \n\n------------------------ Dutch Friends ------------------------\n---------------------------------------------------------------\n- Bezoek ook eens mijn vrienden op: &lt;a href=&quot; http://www.Film-Test.nl&quot; rel=&quot;nofollow&quot; target=&quot;_NEW&quot;&gt; http://www.Film-Test.nl&lt;/a&gt; --\n----- voor mijn Nederlandse Sync. ondertitels ---- en meer ----\n------- http://www.Film-Test.nl ---- voor Films en meer -------\n---------------------------------------------------------------\n\nGeneral:\n\nComplete name                    : Beneath the Darkness.avi\nFormat                           : AVI\nFormat/Info                      : Audio Video Interleave\nFile size                        : 1.33 GiB\nDuration                         : 1h 35mn\nOverall bit rate                 : 1 986 Kbps\n\nVideo:\n\nFormat                           : MPEG-4 Visual\nFormat profile                   : Simple@L3\nFormat settings, BVOP            : No\nFormat settings, QPel            : No\nFormat settings, GMC             : No warppoints\nFormat settings, Matrix          : Default (H.263)\nCodec ID                         : XVID\nCodec ID/Hint                    : XviD\nDuration                         : 1h 35mn\nBit rate                         : 1 590 Kbps\nWidth                            : 720 pixels\nHeight                           : 304 pixels\nDisplay aspect ratio             : 2.35:1\nFrame rate                       : 29.970 fps\nColor space                      : YUV\nChroma subsampling               : 4:2:0\nBit depth                        : 8 bits\nScan type                        : Progressive\nCompression mode                 : Lossy\nBits/(Pixel*Frame)               : 0.242\nStream size                      : 1.07 GiB (80%)\nWriting library                  : XviD 1.1.2 (UTC 2006-11-01)\n\nAudio:\n\nFormat                           : AC-3\nFormat/Info                      : Audio Coding 3\nMode extension                   : CM (complete main)\nCodec ID                         : 2000\nDuration                         : 1h 35mn\nBit rate mode                    : Constant\nBit rate                         : 384 Kbps\nChannel(s)                       : 6 channels\nChannel positions                : Front: L C R, Side: L R, LFE\nSampling rate                    : 48.0 KHz\nBit depth                        : 16 bits\nCompression mode                 : Lossy\nStream size                      : 263 MiB (19%)\nAlignment                        : Aligned on interleaves\nInterleave, duration             : 32 ms (0.96 video frame)\nInterleave, preload duration     : 32 ms\n\n","torrent":{"xt":"urn:btih:8a9c465ca882ba7ad937f17a3a2d215c2e9fd31e","amp;dn":"Beneath+the+Darkness+2011+DVDrip+English+Klam","amp;tr":["udp%3A%2F%2Ftracker.openbittorrent.com%3A80","udp%3A%2F%2Fopen.demonii.com%3A1337","udp%3A%2F%2Ftracker.coppersurfer.tk%3A6969","udp%3A%2F%2Fexodus.desync.com%3A6969"],"infoHash":"8a9c465ca882ba7ad937f17a3a2d215c2e9fd31e","infoHashBuffer":{"type":"Buffer","data":[138,156,70,92,168,130,186,122,217,55,241,122,58,45,33,92,46,159,211,30]},"announce":[],"urlList":[]}}